<?xml version="1.0" encoding="UTF-8" standalone="no"?>
<!-- Created with Inkscape (http://www.inkscape.org/) -->

<svg
   width="579.38696"
   height="635.6178"
   viewBox="0 0 579.38696 635.6178"
   version="1.1"
   id="svg1"
   xml:space="preserve"
   xmlns="http://www.w3.org/2000/svg"
   xmlns:svg="http://www.w3.org/2000/svg"><defs
     id="defs1" /><g
     id="layer1"
     transform="translate(-2074.6865,-414.47925)"><path
       id="path1"
       style="fill:#000000;stroke-linecap:round;stroke-linejoin:round;stroke-miterlimit:0"
       d="m 2207.5908,414.99292 c -8.445,0.21464 -28.0767,16.04061 -35.2793,21.40625 -19.2081,14.3094 -19.3432,32.89588 -4.3516,53.01758 54.3401,63.87198 107.3947,131.59788 156.7578,210.39844 l 45.9004,-37.35547 27.2266,-23.96094 -152.543,-204.74023 c -9.3694,-12.57544 -23.6362,-19.11904 -37.709,-18.76563 z m 220.9297,21.15625 a 225.55283,225.55283 0 0 0 -134.4219,45.14844 l 49.0938,65.88867 a 143.29239,143.29239 0 0 1 85.3281,-28.77734 143.29239,143.29239 0 0 1 143.293,143.29297 143.29239,143.29239 0 0 1 -57.9688,114.51562 l 49.0957,65.89258 a 225.55283,225.55283 0 0 0 91.1328,-180.4082 225.55283,225.55283 0 0 0 -225.5527,-225.55274 z m -262.7031,77.18164 a 225.55283,225.55283 0 0 0 -91.1309,180.4043 225.55283,225.55283 0 0 0 225.5527,225.55273 225.55283,225.55283 0 0 0 134.42,-45.14453 l -49.0957,-65.89258 a 143.29239,143.29239 0 0 1 -85.3243,28.77539 143.29239,143.29239 0 0 1 -143.2929,-143.29101 143.29239,143.29239 0 0 1 57.9648,-114.51563 z m 247.2793,143.45508 -45.9004,37.35547 -27.2266,23.96094 152.543,204.74023 c 9.3698,12.57598 23.6375,19.11973 37.7109,18.76563 8.444,-0.2125 28.0763,-16.04221 35.2793,-21.40821 19.2082,-14.30946 19.3453,-32.89396 4.3535,-53.01562 -54.34,-63.87198 -107.3967,-131.59784 -156.7597,-210.39844 z m -330.3946,303.76758 v 15.39844 h 16.9317 v -15.39844 z m 363.5508,0.64453 v 30.44141 c -1.8747,-3.00517 -4.3169,-5.34523 -7.3242,-7.02344 -3.0074,-1.71724 -6.444,-2.57617 -10.3106,-2.57617 -8.3971,0 -15.114,3.12269 -20.1523,9.36718 -4.9992,6.2445 -7.5,14.81042 -7.5,25.69922 0,9.4448 2.5398,17.1909 7.6172,23.2402 5.1164,6.0104 11.4035,9.0157 18.8633,9.0157 4.5305,0 8.3188,-0.857 11.3652,-2.5743 3.0464,-1.7172 5.7621,-4.4701 8.1445,-8.2558 v 8.8398 h 16.2285 V 961.198 Z m 104.8672,5.15234 v 17.79688 h -8.9043 v 11.88281 h 8.9043 v 39.28317 c 0,3.9809 0.9378,6.9275 2.8125,8.8399 2.8902,3.0051 8.2805,4.3708 16.1699,4.0976 l 7.9082,-0.2929 v -12.4688 c -0.5468,0.039 -1.1134,0.078 -1.6992,0.1172 h -1.582 c -3.3979,0 -5.4279,-0.313 -6.0918,-0.9375 -0.664,-0.6635 -0.9961,-2.3031 -0.9961,-4.918 v -33.72067 h 10.3691 v -11.88281 h -10.3691 v -17.79688 z m -329.6289,15.16211 c -10.9749,0 -19.1571,3.3751 -24.5469,10.12696 -5.3898,6.75186 -8.0859,14.73469 -8.0859,23.94529 0,9.3668 2.6961,17.3868 8.0859,24.0606 5.3898,6.6347 13.572,9.9511 24.5469,9.9511 10.9749,0 19.1571,-3.3164 24.5469,-9.9511 5.3898,-6.6738 8.0839,-14.6938 8.0839,-24.0606 0,-9.2106 -2.6941,-17.19343 -8.0839,-23.94529 -5.3898,-6.75186 -13.572,-10.12696 -24.5469,-10.12696 z m -68.457,0.52735 c -5.2727,0 -9.6275,1.28742 -13.0645,3.86328 -1.9138,1.44404 -3.9456,3.80562 -6.0937,7.08398 v -9.30859 h -16.1094 v 63.69333 h 16.6367 v -34.539 c 0,-3.9419 0.547,-7.182 1.6406,-9.7188 2.1091,-4.80044 5.995,-7.1992 11.6582,-7.1992 4.6087,0 7.7347,1.63765 9.375,4.916 0.8983,1.7953 1.3477,4.3721 1.3477,7.7285 v 38.8125 h 17.1054 v -42.9687 c 0,-8.00078 -2.108,-13.71985 -6.3261,-17.15432 -4.1791,-3.4735 -9.5694,-5.20898 -16.1699,-5.20898 z m 208.5918,0 c -10.7406,0 -18.3171,2.80964 -22.7305,8.42968 -2.773,3.59059 -4.336,8.1768 -4.6875,13.75782 h 16.1113 c 0.3906,-2.4588 1.1721,-4.41143 2.3438,-5.85547 1.6403,-1.95141 4.4322,-2.92578 8.3769,-2.92578 3.5151,0 6.1722,0.50675 7.9688,1.52148 1.8356,0.9757 2.7519,2.77184 2.7519,5.38667 0,2.1466 -1.1898,3.7256 -3.5722,4.7403 -1.328,0.5854 -3.5357,1.0745 -6.6211,1.4648 l -5.6817,0.7032 c -6.4443,0.8195 -11.3267,2.1852 -14.6465,4.0976 -6.0537,3.5125 -9.08,9.1905 -9.08,17.0352 0,6.0493 1.8736,10.7334 5.623,14.0507 3.7885,3.2784 8.5732,4.9161 14.3535,4.9161 4.5306,0 8.5924,-1.0331 12.1856,-3.1016 3.0073,-1.7563 5.6624,-3.8831 7.9668,-6.3809 0.1171,1.4441 0.2734,2.7315 0.4687,3.8633 0.1953,1.1318 0.547,2.341 1.0547,3.6289 h 18.1621 v -2.459 c -1.0936,-0.5073 -1.9141,-1.151 -2.4609,-1.9316 -0.5468,-0.7806 -0.879,-2.2636 -0.9961,-4.4492 -0.078,-2.8881 -0.1172,-5.3456 -0.1172,-7.375 v -29.2715 c 0,-7.68853 -2.7137,-12.91846 -8.1426,-15.68945 -5.4288,-2.771 -11.6397,-4.15625 -18.6308,-4.15625 z m 143.7089,0 c -10.7405,0 -18.317,2.80964 -22.7304,8.42968 -2.773,3.59059 -4.3341,8.1768 -4.6856,13.75782 h 16.1094 c 0.3906,-2.4588 1.1721,-4.41143 2.3437,-5.85547 1.6404,-1.95141 4.4323,-2.92578 8.377,-2.92578 3.5151,0 6.1722,0.50675 7.9687,1.52148 1.8357,0.9757 2.754,2.77184 2.754,5.38667 0,2.1466 -1.1918,3.7256 -3.5743,4.7403 -1.3279,0.5854 -3.5356,1.0745 -6.6211,1.4648 l -5.6816,0.7032 c -6.4443,0.8195 -11.3267,2.1852 -14.6465,4.0976 -6.0537,3.5125 -9.0801,9.1905 -9.0801,17.0352 0,6.0493 1.8737,10.7334 5.6231,14.0507 3.7885,3.2784 8.5731,4.9161 14.3535,4.9161 4.5306,0 8.5924,-1.0331 12.1855,-3.1016 3.0074,-1.7563 5.6645,-3.8831 7.9688,-6.3809 0.1172,1.4441 0.2735,2.7315 0.4687,3.8633 0.1953,1.1318 0.5451,2.341 1.0528,3.6289 h 18.1621 v -2.459 c -1.0936,-0.5073 -1.9142,-1.151 -2.4609,-1.9316 -0.5468,-0.7806 -0.879,-2.2636 -0.9961,-4.4492 -0.078,-2.8881 -0.1172,-5.3456 -0.1172,-7.375 v -29.2715 c 0,-7.68853 -2.7138,-12.91846 -8.1426,-15.68945 -5.4289,-2.771 -11.6398,-4.15625 -18.6309,-4.15625 z m 110.375,0 c -10.7405,0 -18.317,2.80964 -22.7304,8.42968 -2.773,3.59059 -4.336,8.1768 -4.6875,13.75782 h 16.1113 c 0.3906,-2.4588 1.1721,-4.41143 2.3437,-5.85547 1.6404,-1.95141 4.4323,-2.92578 8.377,-2.92578 3.5151,0 6.1722,0.50675 7.9687,1.52148 1.8357,0.9757 2.752,2.77184 2.752,5.38667 0,2.1466 -1.1898,3.7256 -3.5723,4.7403 -1.3279,0.5854 -3.5356,1.0745 -6.6211,1.4648 l -5.6816,0.7032 c -6.4443,0.8195 -11.3267,2.1852 -14.6465,4.0976 -6.0537,3.5125 -9.0801,9.1905 -9.0801,17.0352 0,6.0493 1.8737,10.7334 5.6231,14.0507 3.7885,3.2784 8.5731,4.9161 14.3535,4.9161 4.5306,0 8.5924,-1.0331 12.1855,-3.1016 3.0074,-1.7563 5.6625,-3.8831 7.9668,-6.3809 0.1172,1.4441 0.2735,2.7315 0.4688,3.8633 0.1953,1.1318 0.547,2.341 1.0547,3.6289 h 18.1621 v -2.459 c -1.0936,-0.5073 -1.9142,-1.151 -2.4609,-1.9316 -0.5468,-0.7806 -0.879,-2.2636 -0.9961,-4.4492 -0.078,-2.8881 -0.1172,-5.3456 -0.1172,-7.375 v -29.2715 c 0,-7.68853 -2.7138,-12.91846 -8.1426,-15.68945 -5.4289,-2.771 -11.6398,-4.15625 -18.6309,-4.15625 z m -533.0078,1.52148 v 63.81052 h 16.9317 v -63.81052 z m 178.9492,0 22.9063,63.81052 h 17.6348 l 23.0234,-63.81052 h -17.9277 l -13.5918,47.06832 -13.2989,-47.06832 z m -40.2187,12.06055 c 4.8821,0 8.6313,1.73548 11.248,5.20897 2.6168,3.4345 3.9258,8.3533 3.9258,14.7539 0,6.4006 -1.309,11.3371 -3.9258,14.8106 -2.6167,3.4735 -6.3659,5.2109 -11.248,5.2109 -4.8821,0 -8.6508,-1.7374 -11.3066,-5.2109 -2.6168,-3.4735 -3.9258,-8.41 -3.9258,-14.8106 0,-6.4006 1.309,-11.3194 3.9258,-14.7539 2.6558,-3.47349 6.4245,-5.20897 11.3066,-5.20897 z m 210.9355,0.99414 c 3.2027,0 6.0141,1.01546 8.4356,3.04492 3.9447,3.35641 5.918,8.93661 5.918,16.74221 0,5.581 -1.2309,10.1281 -3.6915,13.6406 -2.4605,3.5125 -6.0534,5.2695 -10.7792,5.2695 -4.7259,0 -8.2406,-1.7765 -10.545,-5.3281 -2.3434,-3.5125 -3.5156,-8.2142 -3.5156,-14.1074 0,-5.4639 1.1332,-10.0306 3.3984,-13.6992 2.3044,-3.7077 5.8973,-5.56253 10.7793,-5.56253 z m -60.666,19.72853 v 6.207 c -0.1171,5.581 -1.6977,9.4237 -4.7441,11.5313 -3.0074,2.1075 -6.3072,3.1621 -9.9004,3.1621 -2.2653,0 -4.1799,-0.6437 -5.7422,-1.9317 -1.6013,-1.2489 -2.4023,-3.2974 -2.4023,-6.1465 0,-3.2003 1.2894,-5.5618 3.8671,-7.0839 1.5233,-0.8977 4.0416,-1.6588 7.5567,-2.2832 l 3.75,-0.7032 c 1.8747,-0.3512 3.34,-0.721 4.3945,-1.1113 1.0936,-0.4293 2.1662,-0.9771 3.2207,-1.6406 z m 143.711,0 v 6.207 c -0.1172,5.581 -1.6997,9.4237 -4.7461,11.5313 -3.0074,2.1075 -6.3072,3.1621 -9.9004,3.1621 -2.2653,0 -4.18,-0.6437 -5.7422,-1.9317 -1.6013,-1.2489 -2.4024,-3.2974 -2.4024,-6.1465 0,-3.2003 1.2895,-5.5618 3.8672,-7.0839 1.5232,-0.8977 4.0435,-1.6588 7.5586,-2.2832 l 3.7481,-0.7032 c 1.8747,-0.3512 3.34,-0.721 4.3945,-1.1113 1.0936,-0.4293 2.1681,-0.9771 3.2227,-1.6406 z m 110.373,0 v 6.207 c -0.1172,5.581 -1.6977,9.4237 -4.7441,11.5313 -3.0074,2.1075 -6.3072,3.1621 -9.9004,3.1621 -2.2653,0 -4.18,-0.6437 -5.7422,-1.9317 -1.6013,-1.2489 -2.4024,-3.2974 -2.4024,-6.1465 0,-3.2003 1.2895,-5.5618 3.8672,-7.0839 1.5232,-0.8977 4.0416,-1.6588 7.5567,-2.2832 l 3.75,-0.7032 c 1.8747,-0.3512 3.34,-0.721 4.3945,-1.1113 1.0936,-0.4293 2.1662,-0.9771 3.2207,-1.6406 z" /></g></svg>
